<svg width="50" height="50" viewBox="0 0 50 50" fill="none" xmlns="http://www.w3.org/2000/svg">
<path d="M8.33341 37.5H12.5001V46.0021L23.1272 37.5H33.3334C35.6313 37.5 37.5001 35.6313 37.5001 33.3333V16.6667C37.5001 14.3688 35.6313 12.5 33.3334 12.5H8.33341C6.0355 12.5 4.16675 14.3688 4.16675 16.6667V33.3333C4.16675 35.6313 6.0355 37.5 8.33341 37.5Z" fill="#729343"/>
<path d="M41.6667 4.16669H16.6667C14.3687 4.16669 12.5 6.03544 12.5 8.33335H37.5C39.7979 8.33335 41.6667 10.2021 41.6667 12.5V29.1667C43.9646 29.1667 45.8333 27.2979 45.8333 25V8.33335C45.8333 6.03544 43.9646 4.16669 41.6667 4.16669Z" fill="#729343"/>
</svg>
