<svg xmlns="http://www.w3.org/2000/svg" version="1.1" xmlns:xlink="http://www.w3.org/1999/xlink" xmlns:svgjs="http://svgjs.dev/svgjs" width="1000" height="300" viewBox="0 0 1000 300"><g transform="matrix(1,0,0,1,-0.6060606060606233,-0.4536355153727243)"><svg viewBox="0 0 396 119" data-background-color="#ffffff" preserveAspectRatio="xMidYMid meet" height="300" width="1000" xmlns="http://www.w3.org/2000/svg" xmlns:xlink="http://www.w3.org/1999/xlink"><g id="tight-bounds" transform="matrix(1,0,0,1,0.2400000000000091,0.17994208776451615)"><svg viewBox="0 0 395.52 118.64011582447095" height="118.64011582447095" width="395.52"><g><svg viewBox="0 0 607.4559873406592 182.21240062794342" height="118.64011582447095" width="395.52"><g transform="matrix(1,0,0,1,0,65.92482930402929)"><svg viewBox="0 0 395.52 50.36274201988486" height="50.36274201988486" width="395.52"><g id="textblocktransform"><svg viewBox="0 0 395.52 50.36274201988486" height="50.36274201988486" width="395.52" id="textblock"><g><svg viewBox="0 0 395.52 50.36274201988486" height="50.36274201988486" width="395.52"><g transform="matrix(1,0,0,1,0,0)"><svg width="395.52" viewBox="3.25 -35.5 286.6300048828125 36.5" height="50.36274201988486" data-palette-color="#729343"><path d="M23.15-4.4L23.15 0 3.25 0 3.25-26.65Q3.25-30.35 5.6-32.6L5.6-32.6Q7.2-34.1 9.2-34.55 11.2-35 14.1-35L14.1-35 23.15-35 23.15-30.6 13.45-30.6Q7.95-30.6 7.95-26L7.95-26 7.95-20.3 19.5-20.3 19.5-15.9 7.95-15.9 7.95-4.4 23.15-4.4ZM48.1-35L52.8-35 52.8-18.15Q52.8-11.4 49.7-6.43 46.6-1.45 40.5 1L40.5 1Q34.45-1.4 31.3-6.25 28.15-11.1 28.15-17.7L28.15-17.7 28.15-35 32.95-35 32.95-18.3Q32.95-13.3 34.6-9.9 36.25-6.5 40.55-4.15L40.55-4.15Q44.75-6.55 46.42-9.95 48.1-13.35 48.1-18.3L48.1-18.3 48.1-35ZM78.7-4.4L78.7 0 58.8 0 58.8-26.65Q58.8-30.35 61.15-32.6L61.15-32.6Q62.75-34.1 64.75-34.55 66.75-35 69.65-35L69.65-35 78.7-35 78.7-30.6 69-30.6Q63.5-30.6 63.5-26L63.5-26 63.5-20.3 75.05-20.3 75.05-15.9 63.5-15.9 63.5-4.4 78.7-4.4ZM88.89 0L84.19 0 84.19-22.75Q84.19-28.8 87.17-32.15 90.14-35.5 95.64-35.5L95.64-35.5Q101.19-35.5 104.17-32.8 107.14-30.1 107.14-25.2L107.14-25.2Q107.14-22.05 105.64-20.05 104.14-18.05 100.54-16.9L100.54-16.9 100.54-16.7Q104.29-15.25 105.57-12.58 106.84-9.9 106.84-3.75L106.84-3.75 106.84 0 102.14 0 102.14-6.4Q102.14-10.2 99.99-12.33 97.84-14.45 93.79-14.45L93.79-14.45 91.09-14.45 91.09-18.85 93.94-18.85Q98.74-18.85 100.59-20.8 102.44-22.75 102.44-25.45L102.44-25.45Q102.44-28 100.62-29.55 98.79-31.1 95.79-31.1L95.79-31.1Q92.34-31.1 90.62-29.15 88.89-27.2 88.89-22.75L88.89-22.75 88.89 0ZM129.84-35L134.54-35 134.54-32.5Q134.54-26.4 132.27-21.33 129.99-16.25 125.64-13.6L125.64-13.6 125.64 0 120.94 0 120.94-13.5Q116.59-16.1 114.24-21.08 111.89-26.05 111.89-32.05L111.89-32.05 111.89-35 116.69-35 116.69-32.5Q116.69-27.35 118.17-23.68 119.64-20 123.29-17.65L123.29-17.65Q129.84-22 129.84-32.5L129.84-32.5 129.84-35ZM156.39-23.2L156.39 0 151.69 0 151.69-23Q151.69-28.9 154.86-32.2 158.04-35.5 163.29-35.5L163.29-35.5Q168.89-35.5 171.96-32.3 175.04-29.1 175.04-24.15L175.04-24.15Q175.04-21.05 173.91-18.75 172.79-16.45 170.89-15.2 168.99-13.95 166.84-13.35 164.69-12.75 162.34-12.75L162.34-12.75 158.59-12.75 158.59-17.15 162.89-17.15Q166.24-17.15 168.16-19.18 170.09-21.2 170.09-24.25L170.09-24.25Q170.09-27.25 168.31-29.18 166.54-31.1 163.24-31.1L163.24-31.1Q160.04-31.1 158.21-28.93 156.39-26.75 156.39-23.2L156.39-23.2ZM199.93-4.4L199.93 0 180.03 0 180.03-26.65Q180.03-30.35 182.38-32.6L182.38-32.6Q183.98-34.1 185.98-34.55 187.98-35 190.88-35L190.88-35 199.93-35 199.93-30.6 190.23-30.6Q184.73-30.6 184.73-26L184.73-26 184.73-20.3 196.28-20.3 196.28-15.9 184.73-15.9 184.73-4.4 199.93-4.4ZM210.38-30.6L210.38 0 205.68 0 205.68-35 218.03-35Q224.23-35 227.28-32.23 230.33-29.45 230.33-23.5L230.33-23.5 230.33 0 225.63 0 225.63-24.15Q225.63-27.55 223.56-29.08 221.48-30.6 218.08-30.6L218.08-30.6 210.38-30.6ZM241.78-30.6L241.78 0 237.08 0 237.08-35 249.43-35Q255.63-35 258.68-32.23 261.73-29.45 261.73-23.5L261.73-23.5 261.73 0 257.03 0 257.03-24.15Q257.03-27.55 254.95-29.08 252.88-30.6 249.48-30.6L249.48-30.6 241.78-30.6ZM285.18-35L289.88-35 289.88-32.5Q289.88-26.4 287.6-21.33 285.33-16.25 280.98-13.6L280.98-13.6 280.98 0 276.28 0 276.28-13.5Q271.93-16.1 269.58-21.08 267.23-26.05 267.23-32.05L267.23-32.05 267.23-35 272.03-35 272.03-32.5Q272.03-27.35 273.5-23.68 274.98-20 278.63-17.65L278.63-17.65Q285.18-22 285.18-32.5L285.18-32.5 285.18-35Z" opacity="1" transform="matrix(1,0,0,1,0,0)" fill="#729343" class="wordmark-text-0" data-fill-palette-color="primary" id="text-0"></path></svg></g></svg></g></svg></g></svg></g><g transform="matrix(1,0,0,1,425.24358671271585,0)"><svg viewBox="0 0 182.21240062794342 182.21240062794342" height="182.21240062794342" width="182.21240062794342"><g><svg viewBox="0 0 182.21240062794342 182.21240062794342" height="182.21240062794342" width="182.21240062794342"><g transform="matrix(1,0,0,1,48.15832561387213,70.51896423900305)"><svg viewBox="0 0 85.89574940019916 41.17447214993733" height="41.17447214993733" width="85.89574940019916"><g><svg xmlns="http://www.w3.org/2000/svg" xmlns:xlink="http://www.w3.org/1999/xlink" version="1.1" x="0" y="0" viewBox="-346 280.5 99.9219970703125 47.89801025390625" enable-background="new -346 256 100 100" xml:space="preserve" height="41.17447214993733" width="85.89574940019916" class="icon-s-0" data-fill-palette-color="accent" id="s-0"><g fill="#729343" data-fill-palette-color="accent"><path d="M-298.567 324.655v-3.785c-2.536-0.12-4.997-0.877-6.436-1.714l1.136-4.662c1.59 0.917 3.823 1.754 6.284 1.754 2.196 0 3.672-0.917 3.672-2.471 0-1.514-1.212-2.471-4.051-3.466-4.051-1.436-6.814-3.428-6.814-7.292 0-3.546 2.347-6.295 6.397-7.092v-3.785h3.71v3.506c2.498 0.08 4.202 0.677 5.526 1.315l-1.135 4.502c-0.946-0.478-2.726-1.395-5.452-1.395-2.461 0-3.256 1.156-3.256 2.271 0 1.275 1.325 2.152 4.581 3.387 4.505 1.674 6.284 3.865 6.284 7.491 0 3.546-2.347 6.574-6.701 7.331v4.104H-298.567z" fill="#729343" data-fill-palette-color="accent"></path></g><path d="M-285.683 328.354c5.265-4.159 8.608-11.236 8.608-19.415 0-12.873-8.618-23.308-19.246-23.308s-19.244 10.435-19.244 23.308c0 8.177 3.315 15.233 8.576 19.393l0.052 0.066H-346V280.5l0 0h99.922v47.898h-39.668L-285.683 328.354zM-253.412 321.063v-10.812h-3.089v7.723h-15.447v3.089H-253.412L-253.412 321.063zM-319.833 321.063v-3.089h-15.447v-7.723h-3.089v10.812H-319.833L-319.833 321.063zM-253.412 298.667v-10.812h-18.536v3.089h15.447v7.724H-253.412L-253.412 298.667zM-335.28 298.667v-7.724h15.447v-3.089h-18.536v10.812H-335.28L-335.28 298.667z" fill="#729343" data-fill-palette-color="accent"></path></svg></g></svg></g><g><path d="M15.057 62.864l1.761 0.56-2.54 7.979-10.682-3.401c-0.988-0.315-1.684-0.882-2.087-1.703v0c-0.261-0.556-0.368-1.12-0.319-1.692 0.048-0.571 0.195-1.245 0.442-2.021v0l1.155-3.628 1.77 0.563-1.237 3.888c-0.468 1.469-0.089 2.399 1.136 2.789v0l2.291 0.729 1.473-4.629 1.762 0.561-1.474 4.629 4.61 1.468z" fill="#729343" data-fill-palette-color="accent"></path><path d="M13.604 38.843l1.057-1.673 5.995 3.785c1.6 1.01 2.757 2.255 3.471 3.734 0.72 1.482 0.914 3.13 0.582 4.942v0c-1.475 1.075-3.023 1.622-4.644 1.642-1.621 0.02-3.214-0.465-4.78-1.454v0l-6.157-3.888 1.073-1.699 5.943 3.753c1.184 0.748 2.304 1.181 3.361 1.298 1.051 0.114 2.177-0.162 3.379-0.829v0c0.06-1.356-0.186-2.486-0.737-3.391-0.56-0.903-1.427-1.725-2.6-2.466v0z" fill="#729343" data-fill-palette-color="accent"></path><path d="M39.368 29.625l1.262 1.349-6.113 5.721-7.66-8.187c-0.708-0.757-1.038-1.592-0.988-2.505v0c0.044-0.613 0.227-1.157 0.547-1.632 0.321-0.475 0.778-0.991 1.374-1.548v0l2.78-2.601 1.27 1.357-2.98 2.787c-1.126 1.053-1.25 2.05-0.371 2.989v0l1.642 1.755 3.548-3.319 1.262 1.35-3.547 3.319 3.305 3.533z" fill="#729343" data-fill-palette-color="accent"></path><path d="M51.419 23.836l-1.736 0.951-4.6-8.397c-0.812-1.482-1.078-2.837-0.799-4.065 0.279-1.228 1.095-2.212 2.447-2.953v0c1.364-0.747 2.595-0.988 3.693-0.721 1.095 0.26 1.972 0.993 2.632 2.197v0c0.427 0.779 0.592 1.515 0.494 2.205-0.104 0.694-0.52 1.425-1.251 2.194v0l0.039 0.071c1.119-0.144 2.017 0.024 2.695 0.504 0.675 0.49 1.427 1.491 2.255 3.003v0l0.757 1.382-1.736 0.951-1.296-2.365c-0.511-0.933-1.175-1.514-1.991-1.742-0.813-0.238-1.719-0.083-2.717 0.463v0l-0.992 0.544-0.888-1.621 1.045-0.573c1.181-0.647 1.868-1.334 2.061-2.062 0.189-0.733 0.103-1.431-0.26-2.092v0c-0.343-0.626-0.844-1.008-1.503-1.145-0.656-0.132-1.353 0.004-2.091 0.408v0c-0.844 0.463-1.348 1.05-1.511 1.761-0.163 0.711 0.055 1.613 0.653 2.705v0z" fill="#729343" data-fill-palette-color="accent"></path><path d="M71.946 0.474l1.922-0.474 0.252 1.02c0.41 1.66 0.475 3.26 0.196 4.799-0.274 1.531-0.917 2.806-1.927 3.825v0l1.369 5.55-1.912 0.472-1.36-5.511c-1.366-0.419-2.532-1.227-3.5-2.423-0.975-1.195-1.663-2.61-2.067-4.244v0l-0.297-1.206 1.961-0.484 0.251 1.02c0.347 1.405 0.843 2.559 1.489 3.46 0.646 0.902 1.547 1.55 2.706 1.944v0c1.486-1.622 1.876-3.865 1.169-6.728v0z" fill="#729343" data-fill-palette-color="accent"></path><path d="M105.951 4.868l-1.814 9.586-1.945-0.368 1.799-9.507c0.308-1.627 0.988-2.811 2.038-3.551 1.046-0.748 2.29-0.985 3.733-0.712v0c1.548 0.293 2.662 0.963 3.341 2.009 0.68 1.04 0.892 2.242 0.633 3.605v0c-0.161 0.853-0.458 1.568-0.888 2.144-0.431 0.576-0.941 0.987-1.529 1.232-0.588 0.245-1.195 0.394-1.821 0.447-0.62 0.054-1.254 0.02-1.903-0.103v0l-1.548-0.293 0.343-1.816 1.777 0.336c0.92 0.174 1.701 0.03 2.343-0.43 0.634-0.456 1.031-1.103 1.19-1.944v0c0.156-0.827 0.04-1.551-0.35-2.173-0.389-0.622-1.041-1.019-1.953-1.192v0c-0.88-0.166-1.628 0-2.243 0.501-0.617 0.507-1.018 1.25-1.203 2.229z" fill="#729343" data-fill-palette-color="accent"></path><path d="M130.328 21.453l-0.781 1.675-7.587-3.543 4.743-10.158c0.439-0.94 1.091-1.556 1.956-1.85v0c0.585-0.187 1.158-0.221 1.719-0.101 0.56 0.121 1.21 0.353 1.948 0.698v0l3.45 1.611-0.786 1.684-3.697-1.726c-1.397-0.652-2.368-0.396-2.912 0.769v0l-1.017 2.178 4.402 2.055-0.782 1.675-4.402-2.055-2.046 4.383z" fill="#729343" data-fill-palette-color="accent"></path><path d="M148.463 20.635l-8.208 9.909-1.525-1.263 9.394-11.34 3.998 3.312c1.338 1.108 2.087 2.236 2.247 3.382 0.165 1.142-0.286 2.356-1.351 3.642v0l-6.308 7.614-1.516-1.256 6.481-7.824c0.606-0.731 0.82-1.449 0.644-2.155-0.175-0.696-0.631-1.349-1.367-1.959v0z" fill="#729343" data-fill-palette-color="accent"></path><path d="M165.81 38.853l-10.579 7.324-1.127-1.628 12.107-8.381 2.955 4.268c0.989 1.428 1.405 2.716 1.25 3.864-0.15 1.144-0.911 2.191-2.284 3.141v0l-8.13 5.628-1.121-1.619 8.354-5.783c0.781-0.54 1.181-1.174 1.202-1.901 0.019-0.718-0.243-1.469-0.788-2.256v0z" fill="#729343" data-fill-palette-color="accent"></path><path d="M181.022 65.172l0.655 1.868-0.991 0.347c-1.614 0.566-3.2 0.784-4.759 0.653-1.55-0.127-2.881-0.645-3.991-1.554v0l-5.395 1.893-0.652-1.858 5.356-1.88c0.287-1.399 0.98-2.638 2.079-3.715 1.097-1.084 2.439-1.905 4.028-2.462v0l1.172-0.411 0.669 1.906-0.991 0.348c-1.366 0.479-2.467 1.083-3.304 1.811-0.836 0.729-1.395 1.688-1.676 2.879v0c1.756 1.325 4.026 1.499 6.808 0.523v0z" fill="#729343" data-fill-palette-color="accent"></path><path d="M8.969 125.512l-1.79 0.571-2.582-8.092 10.834-3.457c1.007-0.321 1.918-0.259 2.731 0.188v0c0.541 0.301 0.96 0.704 1.256 1.211 0.294 0.5 0.567 1.144 0.818 1.933v0l1.173 3.676-1.789 0.571-1.259-3.945c-0.475-1.488-1.335-2.034-2.579-1.636v0l-2.319 0.74 1.498 4.695-1.789 0.571-1.499-4.695-4.676 1.492z" fill="#729343" data-fill-palette-color="accent"></path><path d="M30.152 137.124l1.075 1.699-6.078 3.844c-1.622 1.026-3.266 1.544-4.932 1.554-1.672 0.014-3.266-0.528-4.78-1.625v0c-0.347-1.82-0.176-3.478 0.511-4.973 0.688-1.495 1.826-2.744 3.414-3.748v0l6.239-3.946 1.096 1.733-6.026 3.811c-1.201 0.759-2.085 1.597-2.652 2.514-0.565 0.907-0.805 2.059-0.719 3.454v0c1.221 0.646 2.364 0.911 3.43 0.794 1.075-0.114 2.207-0.547 3.396-1.299v0z" fill="#729343" data-fill-palette-color="accent"></path><path d="M35.062 161.448l-1.283 1.372-6.205-5.8 7.765-8.308c0.722-0.772 1.547-1.162 2.476-1.17v0c0.619-0.002 1.182 0.146 1.687 0.443 0.501 0.293 1.053 0.722 1.658 1.288v0l2.819 2.634-1.283 1.373-3.025-2.828c-1.141-1.067-2.158-1.123-3.05-0.168v0l-1.662 1.778 3.601 3.365-1.283 1.373-3.6-3.366-3.352 3.586z" fill="#729343" data-fill-palette-color="accent"></path><path d="M46.545 171.371l-1.763-0.965 4.66-8.514c0.828-1.512 1.843-2.484 3.047-2.915 1.2-0.425 2.485-0.263 3.855 0.487v0c1.388 0.76 2.267 1.678 2.637 2.756 0.376 1.081 0.229 2.232-0.441 3.455v0c-0.43 0.786-0.968 1.327-1.615 1.626-0.65 0.289-1.502 0.333-2.559 0.131v0l-0.039 0.07c0.739 0.88 1.085 1.741 1.039 2.584-0.052 0.839-0.499 2.026-1.34 3.561v0l-0.766 1.4-1.754-0.96 1.309-2.392c0.521-0.951 0.658-1.839 0.412-2.665-0.246-0.826-0.875-1.515-1.885-2.068v0l-1.01-0.553 0.902-1.648 1.063 0.582c1.199 0.656 2.161 0.868 2.887 0.636 0.732-0.229 1.282-0.68 1.65-1.353v0c0.349-0.638 0.4-1.278 0.153-1.92-0.245-0.633-0.739-1.153-1.483-1.56v0c-0.862-0.472-1.642-0.584-2.338-0.335-0.699 0.254-1.353 0.936-1.961 2.046v0z" fill="#729343" data-fill-palette-color="accent"></path><path d="M76.699 166.902l1.942 0.478-0.256 1.04c-0.414 1.68-1.108 3.146-2.082 4.396-0.972 1.244-2.15 2.084-3.534 2.52v0l-1.389 5.639-1.942-0.479 1.378-5.589c-1.026-1.016-1.695-2.294-2.01-3.834-0.309-1.532-0.26-3.126 0.148-4.78v0l0.302-1.226 1.991 0.491-0.256 1.039c-0.35 1.419-0.447 2.688-0.294 3.808 0.162 1.115 0.667 2.12 1.515 3.015v0c2.107-0.757 3.518-2.583 4.231-5.479v0z" fill="#729343" data-fill-palette-color="accent"></path><path d="M104.079 172.114l1.829 9.727-1.975 0.371-1.814-9.647c-0.31-1.648-0.105-3.019 0.614-4.113 0.714-1.087 1.805-1.768 3.274-2.045v0c1.562-0.294 2.857-0.075 3.885 0.657 1.028 0.732 1.672 1.789 1.932 3.172v0c0.163 0.867 0.15 1.654-0.039 2.361-0.197 0.702-0.527 1.278-0.99 1.728-0.47 0.452-0.987 0.816-1.552 1.093-0.571 0.279-1.187 0.48-1.849 0.605v0l-1.569 0.294-0.347-1.846 1.807-0.339c0.933-0.175 1.618-0.595 2.055-1.26 0.429-0.67 0.563-1.432 0.402-2.286v0c-0.158-0.84-0.536-1.482-1.132-1.924-0.597-0.443-1.359-0.577-2.286-0.403v0c-0.893 0.168-1.537 0.604-1.932 1.309-0.395 0.705-0.499 1.553-0.313 2.546z" fill="#729343" data-fill-palette-color="accent"></path><path d="M133.026 170.689l0.792 1.703-7.701 3.584-4.797-10.311c-0.446-0.958-0.499-1.87-0.158-2.734v0c0.23-0.575 0.578-1.041 1.042-1.398 0.459-0.355 1.064-0.707 1.815-1.056v0l3.498-1.628 0.792 1.703-3.754 1.747c-1.416 0.659-1.849 1.581-1.298 2.765v0l1.027 2.207 4.468-2.079 0.793 1.703-4.469 2.079 2.071 4.451z" fill="#729343" data-fill-palette-color="accent"></path><path d="M138.305 153.596l8.317 10.068-1.55 1.28-9.513-11.516 4.064-3.358c1.36-1.124 2.626-1.658 3.797-1.604 1.176 0.059 2.302 0.741 3.378 2.044v0l6.388 7.731-1.55 1.281-6.567-7.95c-0.613-0.742-1.288-1.093-2.023-1.054-0.726 0.041-1.463 0.37-2.211 0.988v0z" fill="#729343" data-fill-palette-color="accent"></path><path d="M152.78 138.56l10.729 7.446-1.146 1.651-12.272-8.517 3.006-4.331c1.006-1.449 2.08-2.306 3.223-2.571 1.148-0.261 2.416 0.091 3.804 1.055v0l8.239 5.718-1.146 1.651-8.471-5.879c-0.791-0.549-1.535-0.705-2.233-0.468-0.688 0.236-1.308 0.752-1.861 1.548v0z" fill="#729343" data-fill-palette-color="accent"></path><path d="M162.619 114.684l0.665-1.886 1.009 0.356c1.632 0.575 3.024 1.407 4.175 2.498 1.144 1.088 1.867 2.342 2.166 3.76v0l5.478 1.929-0.664 1.886-5.43-1.912c-1.11 0.923-2.447 1.465-4.011 1.629-1.555 0.159-3.136-0.044-4.743-0.61v0l-1.191-0.419 0.681-1.934 1.01 0.356c1.378 0.485 2.632 0.705 3.761 0.66 1.125-0.053 2.174-0.459 3.148-1.215v0c-0.549-2.171-2.23-3.751-5.044-4.742v0z" fill="#729343" data-fill-palette-color="accent"></path><path d="M0.535 93.143c0-3.151 2.555-5.706 5.707-5.706 3.151 0 5.706 2.555 5.706 5.706 0 3.151-2.555 5.706-5.706 5.706-3.151 0-5.706-2.555-5.707-5.706z" fill="#729343" data-fill-palette-color="accent"></path><path d="M169.843 93.143c0-3.151 2.555-5.706 5.706-5.706 3.151 0 5.706 2.555 5.706 5.706 0 3.151-2.555 5.706-5.706 5.706-3.151 0-5.706-2.555-5.706-5.706z" fill="#729343" data-fill-palette-color="accent"></path></g></svg></g></svg></g></svg></g><defs></defs></svg><rect width="395.52" height="118.64011582447095" fill="none" stroke="none" visibility="hidden"></rect></g></svg></g></svg>